<svg width="82" height="143" viewBox="0 0 82 143" fill="none" xmlns="http://www.w3.org/2000/svg">
<path fill-rule="evenodd" clip-rule="evenodd" d="M41.0244 71.5C34.8223 75.1017 29.102 79.5135 24.0173 84.6321C16.4029 92.2971 10.3628 101.397 6.2419 111.412C2.12101 121.426 1.71113e-05 132.16 1.66375e-05 143L22.0386 143C22.0386 135.073 23.5895 127.225 26.6029 119.901C29.6162 112.578 34.0329 105.924 39.6009 100.319C45.1688 94.7143 51.7789 90.2682 59.0537 87.2348C66.3286 84.2015 74.1257 82.6402 82 82.6402L82 60.4553L82 60.3598C74.1257 60.3598 66.3286 58.7985 59.0537 55.7652C51.7789 52.7318 45.1688 48.2857 39.6008 42.6808C34.0329 37.0759 29.6162 30.4219 26.6028 23.0987C23.5895 15.7755 22.0386 7.92656 22.0386 -2.621e-06L1.52588e-05 -3.58433e-06C1.4785e-05 10.8399 2.12101 21.5737 6.2419 31.5885C10.3628 41.6033 16.4029 50.7029 24.0173 58.3679C29.102 63.4865 34.8223 67.8983 41.0244 71.5Z" fill="#111111"/>
</svg>
