<svg width="94" height="80" viewBox="0 0 94 80" fill="none" xmlns="http://www.w3.org/2000/svg">
<g clip-path="url(#clip0_1367_1428)">
<path fill-rule="evenodd" clip-rule="evenodd" d="M54.0029 39.9922V-0.0078125H94.0029V20.8872C94.0029 42.2936 93.9664 43.7913 93.254 47.5538C90.149 64.1931 76.1764 77.4351 59.391 79.6817C58.2769 79.8278 56.6148 79.9557 55.6833 79.9739L54.0029 79.9922V66.7137L55.8659 66.6041C59.2814 66.3849 62.5874 65.4716 65.7655 63.8826C74.3865 59.5721 79.8659 51.3529 80.5965 41.6908L80.7244 39.9922H54.0029ZM55.0029 67.6566L55.93 67.602C59.4852 67.3739 62.9209 66.4229 66.2127 64.777C75.1517 60.3075 80.8368 51.7753 81.5937 41.7662L81.8025 38.9922H55.0029V0.992188H93.0029V20.8872C93.0029 42.3498 92.9616 43.7227 92.2715 47.3678L92.271 47.3704C89.2456 63.583 75.6182 76.4998 59.2608 78.6902C58.1811 78.8318 56.56 78.9562 55.6684 78.974L55.6637 78.9741L55.0029 78.9813V67.6566Z" fill="white"/>
<path fill-rule="evenodd" clip-rule="evenodd" d="M2.44165 66.6041C8.72475 66.2205 14.606 63.5173 19.3184 58.805C24.0307 54.1109 26.7339 48.2114 27.0992 41.8735L27.2088 39.9922H0.487305V-0.0078125H40.4873V21.5082C40.4873 35.079 40.4142 43.5904 40.3047 44.5584C38.0946 62.8598 24.0124 77.1977 5.78412 79.7182C4.83434 79.8461 3.2453 79.9557 2.259 79.9739L0.487305 79.9922V66.7137L2.44165 66.6041ZM1.48731 67.6592L2.50258 67.6022C9.04188 67.203 15.1491 64.388 20.0246 59.513C24.9027 54.6536 27.7174 48.5256 28.0975 41.931L28.2687 38.9922H1.48731V0.992188H39.4873V21.5082C39.4873 28.2922 39.469 33.8098 39.4371 37.7512C39.4049 41.7275 39.3584 44.018 39.3114 44.4427C37.1541 62.2912 23.4245 76.2684 5.64949 78.7273C4.74493 78.849 3.19857 78.9562 2.24408 78.974L2.24049 78.9741L1.48731 78.9818V67.6592Z" fill="white"/>
</g>
<defs>
<clipPath id="clip0_1367_1428">
<rect width="94" height="80" fill="white" transform="translate(0.00292969 -0.0078125)"/>
</clipPath>
</defs>
</svg>
