<svg width="1728" height="381" viewBox="0 0 1728 381" fill="none" xmlns="http://www.w3.org/2000/svg">
<line y1="380.5" x2="1728" y2="380.5" stroke="white" stroke-opacity="0.1"/>
<line y1="0.5" x2="1728" y2="0.5" stroke="white" stroke-opacity="0.1"/>
<line x1="140.5" y1="1" x2="140.5" y2="381" stroke="white" stroke-opacity="0.1"/>
<line x1="280.5" y1="1" x2="280.5" y2="381" stroke="white" stroke-opacity="0.1"/>
<line x1="430.5" y1="1" x2="430.5" y2="381" stroke="white" stroke-opacity="0.1"/>
<line x1="570.5" y1="1" x2="570.5" y2="381" stroke="white" stroke-opacity="0.1"/>
<line x1="730.5" y1="1" x2="730.5" y2="381" stroke="white" stroke-opacity="0.1"/>
<line x1="870.5" y1="1" x2="870.5" y2="381" stroke="white" stroke-opacity="0.1"/>
<line x1="800.5" y1="1" x2="800.5" y2="381" stroke="white" stroke-opacity="0.1"/>
<line x1="650.5" y1="1" x2="650.5" y2="381" stroke="white" stroke-opacity="0.1"/>
<line x1="500.5" y1="1" x2="500.5" y2="381" stroke="white" stroke-opacity="0.1"/>
<line x1="360.5" y1="1" x2="360.5" y2="381" stroke="white" stroke-opacity="0.1"/>
<line x1="210.5" y1="1" x2="210.5" y2="381" stroke="white" stroke-opacity="0.1"/>
<line x1="60.5" y1="1" x2="60.5" y2="381" stroke="white" stroke-opacity="0.1"/>
<line x1="870" y1="63.5" x2="-4.37113e-08" y2="63.4999" stroke="white" stroke-opacity="0.1"/>
<line x1="870" y1="123.5" x2="-4.37113e-08" y2="123.5" stroke="white" stroke-opacity="0.1"/>
<line x1="870" y1="183.5" x2="-4.37113e-08" y2="183.5" stroke="white" stroke-opacity="0.1"/>
<line x1="870" y1="243.5" x2="-4.37113e-08" y2="243.5" stroke="white" stroke-opacity="0.1"/>
<line x1="870" y1="313.5" x2="-4.37113e-08" y2="313.5" stroke="white" stroke-opacity="0.1"/>
</svg>
